<?xml version="1.0" encoding="iso-8859-1"?>
<!-- Generator: Adobe Illustrator 19.0.0, SVG Export Plug-In . SVG Version: 6.00 Build 0)  -->
<svg version="1.1" id="Capa_1" xmlns="http://www.w3.org/2000/svg" xmlns:xlink="http://www.w3.org/1999/xlink" x="0px" y="0px"
	 viewBox="0 0 48.116 48.116" style="enable-background:new 0 0 48.116 48.116;" xml:space="preserve">
<g>
	<g>
		<path d="M38.309,46.964c-0.159,0-0.319-0.038-0.465-0.115l-13.786-7.247L10.273,46.85c-0.337,0.177-0.743,0.147-1.054-0.076
			c-0.308-0.224-0.462-0.603-0.398-0.978l2.633-15.35L0.302,19.575c-0.272-0.266-0.37-0.663-0.253-1.025
			c0.118-0.362,0.431-0.626,0.808-0.681l9.422-1.369c0.545-0.076,1.054,0.299,1.133,0.846c0.08,0.547-0.299,1.054-0.846,1.134
			l-7.416,1.078l10.078,9.823c0.235,0.23,0.343,0.561,0.287,0.885l-2.379,13.871l12.456-6.549c0.293-0.153,0.64-0.153,0.931,0
			l12.458,6.549l-2.379-13.871c-0.056-0.324,0.052-0.655,0.287-0.885l10.078-9.823L31.04,17.533
			c-0.326-0.047-0.607-0.252-0.753-0.547l-6.229-12.62l-6.229,12.62c-0.243,0.496-0.842,0.699-1.339,0.455
			c-0.495-0.245-0.699-0.844-0.454-1.339l7.125-14.437c0.336-0.683,1.457-0.683,1.793,0l6.893,13.965l15.412,2.24
			c0.377,0.055,0.689,0.319,0.808,0.681c0.117,0.362,0.02,0.759-0.253,1.025L36.661,30.445l2.633,15.35
			c0.065,0.375-0.09,0.754-0.397,0.978C38.723,46.9,38.516,46.964,38.309,46.964z"/>
	</g>
</g>
<g>
</g>
<g>
</g>
<g>
</g>
<g>
</g>
<g>
</g>
<g>
</g>
<g>
</g>
<g>
</g>
<g>
</g>
<g>
</g>
<g>
</g>
<g>
</g>
<g>
</g>
<g>
</g>
<g>
</g>
</svg>
